<?xml version="1.0" encoding="utf-8"?>
<!-- Generator: Adobe Illustrator 26.2.1, SVG Export Plug-In . SVG Version: 6.00 Build 0)  -->
<svg version="1.1" id="katman_1" xmlns="http://www.w3.org/2000/svg" xmlns:xlink="http://www.w3.org/1999/xlink" x="0px" y="0px"
	 viewBox="0 0 200 97" style="enable-background:new 0 0 200 97;" xml:space="preserve">
<style type="text/css">
	.st0{fill:#006EB7;}
	.st1{fill:#FFFFFF;}
	.st2{fill:#D63017;}
</style>
<g>
	<path d="M125.6,41.3h-0.9v2.3H123v-2.3h-4v-1.1l3-8.7h1.8c0,0,0,0.1,0,0.1l-2.8,8.2h1.9v-3.6h1.7v3.6h0.9V41.3z"/>
	<path d="M132.8,41.3h-0.9v2.3h-1.7v-2.3h-4v-1.1l3-8.7h1.8c0,0,0,0.1,0,0.1l-2.8,8.2h1.9v-3.6h1.7v3.6h0.9V41.3z"/>
	<path d="M140,41.3h-0.9v2.3h-1.7v-2.3h-4v-1.1l3-8.7h1.8c0,0,0,0.1,0,0.1l-2.8,8.2h1.9v-3.6h1.7v3.6h0.9V41.3z"/>
	<path d="M150,32.7l-2.8,10.9h-1.9l2.7-10.5h-2.3v1.8h-1.7v-3.3h6V32.7z"/>
	<path d="M156.9,42.5c0,0.7-0.4,1.1-1.1,1.1h-3.6c-0.7,0-1.1-0.4-1.1-1.1v-2.8h1.8v2.3h2.2v-4.6h-4l0.2-5.9h5.5v1.6H153l-0.1,2.7
		h2.9c0.7,0,1.1,0.4,1.1,1.1V42.5z"/>
	<path d="M167.5,42.5c0,0.7-0.4,1.1-1.1,1.1h-3.8c-0.7,0-1.1-0.4-1.1-1.1V39c0-0.4,0.1-0.8,0.4-1c0.4-0.2,0.7-0.4,1.1-0.6
		c-0.3-0.2-0.7-0.4-1-0.6c-0.3-0.2-0.5-0.6-0.5-1v-3.1c0-0.7,0.4-1.1,1.1-1.1h3.8c0.7,0,1.1,0.4,1.1,1.1v3.1c0,0.4-0.2,0.8-0.5,1
		c-0.3,0.2-0.7,0.4-1,0.6c0.4,0.2,0.7,0.4,1.1,0.6c0.3,0.2,0.5,0.6,0.5,1V42.5z M165.7,42.1v-3.4l-1.2-0.7l-1.2,0.7v3.4H165.7z
		 M165.7,36v-2.9h-2.3V36l1.2,0.7L165.7,36z"/>
	<path d="M175,42.5c0,0.7-0.4,1.1-1.1,1.1h-3.8c-0.7,0-1.1-0.4-1.1-1.1V39c0-0.4,0.1-0.8,0.4-1c0.4-0.2,0.7-0.4,1.1-0.6
		c-0.3-0.2-0.7-0.4-1-0.6c-0.3-0.2-0.5-0.6-0.5-1v-3.1c0-0.7,0.4-1.1,1.1-1.1h3.8c0.7,0,1.1,0.4,1.1,1.1v3.1c0,0.4-0.2,0.8-0.5,1
		c-0.3,0.2-0.7,0.4-1,0.6c0.4,0.2,0.7,0.4,1.1,0.6c0.3,0.2,0.5,0.6,0.5,1V42.5z M173.2,42.1v-3.4l-1.2-0.7l-1.2,0.7v3.4H173.2z
		 M173.1,36v-2.9h-2.3V36l1.2,0.7L173.1,36z"/>
</g>
<g>
	<path d="M111.3,47.9l-0.9,4.4h-0.9l-0.5-2.4l-0.5,2.4h-0.9l-0.9-4.4h0.9l0.5,2.8l0.5-2.8h0.8l0.5,2.8l0.5-2.8H111.3z"/>
	<path d="M116.1,47.9l-0.9,4.4h-0.9l-0.5-2.4l-0.5,2.4h-0.9l-0.9-4.4h0.9l0.5,2.8l0.5-2.8h0.8l0.5,2.8l0.5-2.8H116.1z"/>
	<path d="M120.9,47.9l-0.9,4.4h-0.9l-0.5-2.4l-0.5,2.4h-0.9l-0.9-4.4h0.9l0.5,2.8l0.5-2.8h0.8l0.5,2.8l0.5-2.8H120.9z"/>
	<path d="M122.4,52.2h-1v-1h1V52.2z"/>
	<path d="M126,52.2h-1.1l-0.9-2v2h-1v-6.8h1v4.1l0.8-1.7h1v0l-1,2L126,52.2z"/>
	<path d="M129.2,52.2h-0.9v-0.2c-0.2,0-0.4,0.1-0.7,0.1c-0.3,0-0.5,0.1-0.7,0.1c-0.4,0-0.5-0.2-0.5-0.5v-1.6c0-0.4,0.2-0.5,0.6-0.5
		h1.3v-1h-0.9v0.6h-0.9v-0.8c0-0.4,0.2-0.5,0.6-0.5h1.7c0.4,0,0.5,0.2,0.5,0.5V52.2z M128.3,51.5v-1.2h-0.9v1.2L128.3,51.5z"/>
	<path d="M130.9,52.2h-1v-6.8h1V52.2z"/>
	<path d="M134.5,51.7c0,0.4-0.2,0.5-0.6,0.5h-1.7c-0.4,0-0.6-0.2-0.6-0.5v-3.3c0-0.4,0.2-0.5,0.6-0.5h1.7c0.4,0,0.6,0.2,0.6,0.5V50
		l-0.3,0.3h-1.6v1.2h0.9v-0.7h0.9V51.7z M133.5,49.7v-1h-0.9v1H133.5z"/>
	<path d="M138.1,51.4c0,0.3-0.1,0.5-0.2,0.6c-0.2,0.2-0.4,0.2-0.7,0.2h-2v-6.8h1V48c0.2,0,0.5-0.1,0.7-0.1c0.3,0,0.5-0.1,0.7-0.1
		c0.4,0,0.5,0.2,0.5,0.5V51.4z M137.1,51.1v-2.4l-0.9,0v2.7h0.6C137,51.4,137.1,51.3,137.1,51.1z"/>
	<path d="M139.8,52.2h-1v-6.8h1V52.2z"/>
	<path d="M143.4,51.7c0,0.4-0.2,0.5-0.5,0.5h-1.8c-0.4,0-0.6-0.2-0.6-0.5v-3.3c0-0.4,0.2-0.5,0.6-0.5h1.8c0.4,0,0.5,0.2,0.5,0.5
		V51.7z M142.5,51.4v-2.7h-0.9v2.7H142.5z"/>
	<path d="M147,52.2H146l-0.9-2v2h-1v-6.8h1v4.1l0.8-1.7h1v0l-1,2L147,52.2z"/>
	<path d="M150.4,51.4c0,0.3-0.1,0.5-0.2,0.6c-0.2,0.2-0.4,0.2-0.7,0.2h-2v-6.8h1V48c0.2,0,0.5-0.1,0.7-0.1c0.3,0,0.5-0.1,0.7-0.1
		c0.4,0,0.5,0.2,0.5,0.5V51.4z M149.4,51.1v-2.4l-0.9,0v2.7h0.6C149.3,51.4,149.4,51.3,149.4,51.1z"/>
	<path d="M152.1,47.3h-1v-1h1V47.3z M152.1,52.2h-1v-4.4h1V52.2z"/>
	<path d="M157.6,52.2h-1v-3.5l-0.9,0v3.5h-1v-3.5l-0.9,0v3.5h-1v-4.4h1V48c0.2,0,0.5-0.1,0.7-0.1c0.3,0,0.5-0.1,0.7-0.1
		c0.2,0,0.4,0.1,0.4,0.2c0.2,0,0.5-0.1,0.7-0.1c0.3-0.1,0.6-0.1,0.7-0.1c0.4,0,0.5,0.2,0.5,0.5V52.2z"/>
	<path d="M161.1,51.7c0,0.4-0.2,0.5-0.5,0.5h-1.7c-0.4,0-0.5-0.2-0.5-0.5v-0.9h0.9v0.7h0.9v-0.7l-1.5-0.9c-0.2-0.1-0.3-0.3-0.3-0.5
		v-1c0-0.4,0.2-0.5,0.6-0.5h1.6c0.4,0,0.5,0.2,0.5,0.5v0.9h-0.9v-0.7h-0.9v0.6l1.5,0.9c0.2,0.1,0.3,0.3,0.3,0.5V51.7z"/>
	<path d="M162.7,52.2h-1v-1h1V52.2z"/>
	<path d="M166.2,51.7c0,0.4-0.2,0.5-0.5,0.5H164c-0.4,0-0.6-0.2-0.6-0.5v-3.3c0-0.4,0.2-0.5,0.6-0.5h1.7c0.4,0,0.5,0.2,0.5,0.5v1h-1
		v-0.8h-0.9v2.7h0.9v-0.8h1V51.7z"/>
	<path d="M169.8,51.7c0,0.4-0.2,0.5-0.5,0.5h-1.8c-0.4,0-0.6-0.2-0.6-0.5v-3.3c0-0.4,0.2-0.5,0.6-0.5h1.8c0.4,0,0.5,0.2,0.5,0.5
		V51.7z M168.8,51.4v-2.7h-0.9v2.7H168.8z"/>
	<path d="M175.3,52.2h-1v-3.5l-0.9,0v3.5h-1v-3.5l-0.9,0v3.5h-1v-4.4h1V48c0.2,0,0.5-0.1,0.7-0.1c0.3,0,0.5-0.1,0.7-0.1
		c0.2,0,0.4,0.1,0.4,0.2c0.2,0,0.5-0.1,0.7-0.1c0.3-0.1,0.6-0.1,0.7-0.1c0.4,0,0.5,0.2,0.5,0.5V52.2z"/>
</g>
<g>
	<rect x="14.8" y="25.6" class="st0" width="86.9" height="33.4"/>
	<g>
		<path class="st1" d="M26.5,48.5h0.3c0.9,0,1.5,0.4,1.6,1.2c0.1,0.5-0.1,0.9-0.4,1.2c-0.3,0.3-0.8,0.5-1.3,0.5h-0.3h-2.2
			c-0.8,0-1.5-0.2-2-0.5c-0.5-0.3-0.8-0.8-0.9-1.4c0-0.2,0-0.4,0-0.5c0-0.1,0.1-0.4,0.1-0.7l1.5-5.6l0.1-0.4c0.3-1,0.9-1.5,1.8-1.5
			c0.4,0,0.7,0.1,1,0.4c0.3,0.3,0.5,0.6,0.5,0.9c0,0.3,0,0.6-0.1,0.9l-0.1,0.4l-1.3,4.8H26.5z M24.3,39.9c-0.4-0.4-0.7-0.8-0.7-1.3
			c-0.1-0.5,0.1-1,0.4-1.3c0.3-0.4,0.7-0.6,1.3-0.6c0.5,0,1,0.2,1.5,0.6c0.4,0.4,0.7,0.8,0.7,1.4c0.1,0.5-0.1,1-0.4,1.3
			c-0.3,0.4-0.7,0.5-1.3,0.5C25.2,40.5,24.7,40.3,24.3,39.9z"/>
		<path class="st1" d="M37.6,48.5h0.3c0.9,0,1.5,0.4,1.6,1.2c0.1,0.5-0.1,0.9-0.4,1.2c-0.3,0.3-0.8,0.5-1.3,0.5h-0.3H31
			c-0.6,0-1-0.1-1.4-0.4c-0.4-0.3-0.6-0.7-0.7-1.2c0-0.3,0-0.5,0.1-0.7c0.1-0.2,0.3-0.5,0.6-0.8l3.9-4.3L32,44.1c-0.1,0-0.2,0-0.4,0
			c-1,0-1.5-0.4-1.6-1.3c-0.1-0.5,0.1-0.9,0.4-1.3c0.3-0.3,0.8-0.5,1.4-0.5h0.4h4.3c1.3,0,2,0.5,2.1,1.6c0.1,0.6-0.1,1.1-0.6,1.7
			l-3.8,4.2H37.6z"/>
		<path class="st1" d="M43.4,51.4c-0.4-0.1-0.8-0.2-1.1-0.4c-0.6-0.4-1.2-0.9-1.6-1.6c-0.4-0.7-0.7-1.4-0.8-2.2
			c-0.1-0.8-0.1-1.7,0.2-2.4c0.2-0.8,0.6-1.5,1.1-2c0.5-0.6,1.1-1,1.8-1.4c0.7-0.3,1.5-0.5,2.3-0.5c0.7,0,1.3,0.1,1.9,0.3
			c0.6,0.2,1.1,0.5,1.6,0.9c0.5,0.4,0.8,0.9,1.1,1.4c0.3,0.5,0.5,1.1,0.6,1.8c0.1,0.5,0.1,1.1,0,1.6c-0.1,0.5-0.2,1.1-0.4,1.5
			c-0.2,0.5-0.4,0.9-0.7,1.3c-0.3,0.4-0.6,0.7-1,1c-0.4,0.3-0.8,0.4-1.3,0.5c-0.5,0.1-1.1,0.1-2,0.1C44.4,51.5,43.8,51.5,43.4,51.4z
			 M46.7,44.2c-0.3-0.3-0.7-0.5-1.2-0.5c-0.4,0-0.7,0.1-1,0.3c-0.3,0.2-0.6,0.4-0.8,0.7c-0.2,0.3-0.4,0.6-0.5,1
			c-0.1,0.4-0.1,0.8-0.1,1.2c0.1,1,0.8,1.5,1.9,1.5c0.3,0,0.6,0,0.8-0.1c0.2,0,0.3-0.1,0.5-0.3c0.3-0.3,0.6-0.7,0.7-1.2
			c0.2-0.5,0.2-1,0.2-1.5C47.2,45,47,44.6,46.7,44.2z"/>
		<path class="st1" d="M62,49c0.2,0.3,0.3,0.5,0.4,0.6c0.1,0.1,0.1,0.3,0.1,0.4c0,0.2,0,0.4-0.1,0.6c-0.1,0.2-0.2,0.4-0.3,0.5
			c-0.1,0.1-0.3,0.3-0.5,0.4c-0.2,0.1-0.4,0.1-0.6,0.1c-0.4,0-0.8-0.2-1.1-0.6l-0.2-0.3l-3.8-4.8l-1,3.8c-0.2,0.7-0.4,1.2-0.7,1.5
			c-0.3,0.3-0.7,0.4-1.2,0.4c-0.4,0-0.7-0.1-1-0.4c-0.3-0.2-0.5-0.6-0.5-0.9c0-0.3,0-0.6,0.1-0.9l0.1-0.4l4-14.5l0.1-0.4
			c0.3-1,0.9-1.5,1.8-1.5c0.4,0,0.7,0.1,1,0.4c0.3,0.3,0.5,0.6,0.5,0.9c0,0.3,0,0.6-0.1,0.9l-0.1,0.4L56.5,44l2.8-2.3
			c0.4-0.3,0.7-0.5,0.9-0.6c0.2-0.1,0.4-0.2,0.7-0.2c0.4,0,0.7,0.1,1,0.4c0.3,0.3,0.5,0.6,0.5,0.9c0,0.4,0,0.7-0.1,1
			c-0.1,0.3-0.5,0.6-0.9,1l-1.8,1.5L62,49z"/>
		<path class="st1" d="M74.4,48.5h0.3c0.9,0,1.5,0.4,1.6,1.2c0.1,0.5-0.1,0.9-0.4,1.2c-0.3,0.3-0.8,0.5-1.3,0.5h-0.3h-1.8
			c-0.8,0-1.4-0.3-1.7-0.9l-0.2,0.2c-0.3,0.3-0.5,0.4-0.8,0.5c-0.2,0.1-0.5,0.2-0.9,0.2h-1.7c-1,0-1.8-0.4-2.5-1.1
			c-0.7-0.7-1.1-1.7-1.3-2.8c-0.1-0.9-0.1-1.7,0.2-2.5c0.2-0.8,0.6-1.5,1-2.2c0.5-0.6,1-1.1,1.7-1.5c0.7-0.4,1.4-0.6,2.1-0.6
			c1.1,0,2,0.4,2.7,1.2c0.2-0.4,0.4-0.6,0.7-0.8c0.3-0.1,0.6-0.2,1-0.2c0.4,0,0.7,0.1,1.1,0.4c0.3,0.2,0.5,0.5,0.5,0.9
			c0,0.2,0,0.4,0,0.5c0,0.2-0.1,0.4-0.2,0.8l-1.3,4.9H74.4z M70.3,45.3l0.1-0.2c0.1-0.1,0.1-0.3,0-0.5c0-0.3-0.2-0.5-0.5-0.7
			c-0.3-0.2-0.6-0.3-0.9-0.3s-0.7,0.1-1,0.3c-0.3,0.2-0.6,0.5-0.8,0.9c-0.2,0.4-0.4,0.7-0.5,1.2c-0.1,0.4-0.2,0.9-0.1,1.3
			c0.1,0.4,0.2,0.8,0.4,1c0.2,0.2,0.5,0.4,0.9,0.4h0.5c0.2,0,0.4-0.1,0.7-0.3c0.2-0.2,0.4-0.3,0.5-0.5L70.3,45.3z"/>
		<path class="st1" d="M81.9,48.5h0.3c0.9,0,1.5,0.4,1.6,1.2c0.1,0.5-0.1,0.9-0.4,1.2c-0.3,0.3-0.8,0.5-1.3,0.5h-0.3h-2.4
			c-0.7,0-1.2-0.2-1.7-0.5c-0.5-0.3-0.7-0.7-0.8-1.2c0-0.2,0-0.4,0-0.7c0-0.3,0.1-0.5,0.2-0.8l3.7-13.6l0.1-0.4
			c0.3-1,0.9-1.5,1.8-1.5c0.4,0,0.7,0.1,1,0.4c0.3,0.3,0.5,0.6,0.5,0.9c0,0.3,0,0.6-0.1,1L84,35.4l-3.6,13.1H81.9z"/>
		<path class="st1" d="M89.1,48.5h4.1h0.3c0.9,0,1.5,0.4,1.6,1.2c0.1,0.5-0.1,0.9-0.4,1.2c-0.3,0.3-0.8,0.5-1.3,0.5H93h-3.9
			c-0.7,0-1.3-0.1-1.7-0.2c-0.4-0.1-0.8-0.3-1.3-0.5c-1.2-0.8-1.9-2-2.1-3.5c-0.1-0.9-0.1-1.7,0.2-2.5c0.2-0.8,0.6-1.5,1-2
			c0.5-0.6,1.1-1.1,1.8-1.4c0.7-0.3,1.5-0.5,2.3-0.5c1.2,0,2.2,0.3,3,0.9c0.8,0.6,1.3,1.5,1.4,2.5c0.1,0.7,0,1.2-0.3,1.8
			c-0.3,0.5-0.7,0.9-1.2,1.1c-0.1,0.1-0.3,0.1-0.4,0.2c-0.1,0-0.3,0.1-0.4,0.1c-0.2,0-0.3,0-0.5,0.1c-0.2,0-0.4,0-0.7,0h-2.8
			C87.5,48.2,88.1,48.5,89.1,48.5z M89.3,45c0.5,0,0.9-0.1,1.1-0.2c0.2-0.1,0.3-0.3,0.3-0.5c0-0.2-0.1-0.4-0.3-0.5
			c-0.2-0.1-0.4-0.2-0.7-0.2c-0.9,0-1.5,0.5-1.8,1.4H89.3z"/>
	</g>
</g>
<polygon class="st2" points="157.1,16.2 153.8,16.2 152.4,16.2 71,16.2 71,22.3 74.3,22.3 74.3,19.5 151.5,19.5 153,19.5 182,19.5 
	182,65.1 74.3,65.1 74.3,62.3 71,62.3 71,68.3 185.2,68.3 185.2,16.2 "/>
<g>
	<path d="M38.3,85.2c-0.2-0.1-0.4-0.3-0.4-0.6c0-0.3,0.2-0.6,0.6-0.6c0.3,0,0.6,0.3,1.7,0.3c0.7,0,1-0.2,1-0.5c0-1-3.2-0.3-3.2-2.4
		c0-1,0.7-1.7,2.4-1.7c0.9,0,1.7,0.3,2,0.8c0.1,0.1,0.1,0.3,0.1,0.4c0,0.3-0.2,0.6-0.6,0.6c-0.3,0-0.4-0.1-0.6-0.3
		c-0.2-0.3-0.6-0.4-1-0.4c-0.6,0-0.8,0.2-0.8,0.5c0,1.1,3.3,0.3,3.3,2.4c0,1-0.8,1.7-2.5,1.7C39.4,85.5,38.8,85.4,38.3,85.2z"/>
	<path d="M48.9,80.5v4.4c0,0.4-0.2,0.7-0.6,0.7c-0.3,0-0.6-0.2-0.7-0.6l0-0.2c-0.4,0.5-0.9,0.8-1.8,0.8c-1.5,0-2.4-1-2.4-2.8
		c0-1.8,1.1-2.9,2.7-2.9c0.7,0,1.2,0.2,1.6,0.4c0.1-0.3,0.3-0.4,0.6-0.4C48.7,79.8,48.9,80.1,48.9,80.5z M47.4,83v-1.6
		c-0.3-0.2-0.6-0.4-1.2-0.4c-0.9,0-1.4,0.6-1.4,1.7c0,1.1,0.5,1.6,1.3,1.6C46.9,84.3,47.4,83.8,47.4,83z"/>
	<path d="M55.4,80.4v4.4c0,2.1-1.1,2.8-3,2.8c-0.5,0-1-0.1-1.4-0.1c-0.4-0.1-0.6-0.4-0.6-0.7c0-0.4,0.3-0.7,0.8-0.6
		c0.3,0.1,0.7,0.1,1.1,0.1c1,0,1.6-0.3,1.6-1.3v-0.4c-0.4,0.4-0.9,0.6-1.6,0.6c-1.5,0-2.4-1-2.4-2.6s1-2.8,2.7-2.8
		c0.7,0,1.2,0.2,1.6,0.5c0.1-0.3,0.3-0.5,0.6-0.5C55.2,79.8,55.4,80.1,55.4,80.4z M51,77.8c0,0,0-0.1,0-0.2c0-0.3,0.2-0.5,0.5-0.5
		c0.3,0,0.4,0.2,0.5,0.4c0.1,0.3,0.2,0.6,0.7,0.6c0.5,0,0.6-0.3,0.7-0.6c0.1-0.2,0.2-0.4,0.5-0.4c0.3,0,0.5,0.2,0.5,0.5
		c0,0,0,0.1,0,0.1c-0.1,0.7-0.7,1.2-1.7,1.2C51.7,79.1,51.1,78.6,51,77.8z M53.9,82.6v-1.2c-0.3-0.2-0.7-0.4-1.2-0.4
		c-0.9,0-1.4,0.6-1.4,1.5c0,0.9,0.5,1.3,1.3,1.3S53.9,83.4,53.9,82.6z"/>
	<path d="M58.5,77.8v7c0,0.4-0.3,0.7-0.8,0.7S57,85.2,57,84.8v-7c0-0.4,0.3-0.7,0.8-0.7S58.5,77.5,58.5,77.8z"/>
	<path d="M65.2,80.5v4.4c0,0.4-0.2,0.7-0.6,0.7c-0.3,0-0.6-0.2-0.7-0.6l0-0.2c-0.4,0.5-0.9,0.8-1.8,0.8c-1.5,0-2.4-1-2.4-2.8
		c0-1.8,1.1-2.9,2.7-2.9c0.7,0,1.2,0.2,1.6,0.4c0.1-0.3,0.3-0.4,0.6-0.4C65,79.8,65.2,80.1,65.2,80.5z M63.7,83v-1.6
		c-0.3-0.2-0.6-0.4-1.2-0.4c-0.9,0-1.4,0.6-1.4,1.7c0,1.1,0.5,1.6,1.3,1.6C63.2,84.3,63.7,83.8,63.7,83z"/>
	<path d="M75.2,81.9v2.9c0,0.4-0.3,0.7-0.8,0.7c-0.4,0-0.8-0.3-0.8-0.7v-2.5c0-0.8-0.3-1.2-0.9-1.2c-0.7,0-1.1,0.5-1.1,1.2v2.6
		c0,0.4-0.3,0.7-0.8,0.7c-0.4,0-0.8-0.3-0.8-0.7v-2.6c0-0.8-0.3-1.2-0.9-1.2c-0.7,0-1.1,0.5-1.1,1.2v2.6c0,0.4-0.3,0.7-0.8,0.7
		s-0.8-0.3-0.8-0.7v-4.4c0-0.4,0.3-0.6,0.7-0.6c0.4,0,0.6,0.3,0.7,0.6l0,0.3c0.4-0.5,1-0.9,1.8-0.9c0.8,0,1.4,0.4,1.7,1
		c0.4-0.6,1-1,1.8-1C74.5,79.8,75.2,80.6,75.2,81.9z"/>
	<path d="M84.5,80.5v4.2c0,2.1-1.1,2.9-3,2.9c-0.5,0-0.9,0-1.3-0.1c-0.5-0.1-0.7-0.4-0.7-0.8c0-0.4,0.4-0.7,0.8-0.6
		c0.3,0.1,0.7,0.1,1.1,0.1c1,0,1.5-0.4,1.5-1.4v-0.3c-0.4,0.5-1,0.7-1.8,0.7c-1.3,0-1.9-0.6-1.9-2.3v-2.5c0-0.4,0.3-0.7,0.8-0.7
		s0.8,0.3,0.8,0.7v2.2c0,0.9,0.3,1.2,0.9,1.2c0.8,0,1.3-0.6,1.3-1.5v-1.9c0-0.4,0.3-0.7,0.8-0.7C84.2,79.8,84.5,80.1,84.5,80.5z"/>
	<path d="M91.2,80.5v4.4c0,0.4-0.2,0.7-0.6,0.7c-0.3,0-0.6-0.2-0.7-0.6l0-0.2c-0.4,0.5-0.9,0.8-1.8,0.8c-1.5,0-2.4-1-2.4-2.8
		c0-1.8,1.1-2.9,2.7-2.9c0.7,0,1.2,0.2,1.6,0.4c0.1-0.3,0.3-0.4,0.6-0.4C91,79.8,91.2,80.1,91.2,80.5z M89.7,83v-1.6
		c-0.3-0.2-0.6-0.4-1.2-0.4c-0.9,0-1.4,0.6-1.4,1.7c0,1.1,0.5,1.6,1.3,1.6C89.1,84.3,89.7,83.8,89.7,83z"/>
	<path d="M98.1,82.5c0,2-1.1,3-3,3c-0.4,0-0.7,0-1-0.1v1.5c0,0.4-0.3,0.7-0.8,0.7s-0.8-0.3-0.8-0.7v-6.5c0-0.3,0.3-0.6,0.7-0.6
		c0.4,0,0.6,0.3,0.7,0.6l0,0.3c0.3-0.5,0.9-0.9,1.8-0.9C97.1,79.8,98.1,80.6,98.1,82.5z M96.5,82.6c0-1.1-0.5-1.6-1.3-1.6
		c-0.7,0-1.2,0.4-1.2,1.2v1.9c0.3,0.1,0.6,0.2,0.9,0.2C95.9,84.3,96.5,83.8,96.5,82.6z"/>
	<path d="M100.8,80.5v4.4c0,0.4-0.3,0.7-0.8,0.7s-0.8-0.3-0.8-0.7v-4.4c0-0.4,0.3-0.7,0.8-0.7S100.8,80.1,100.8,80.5z"/>
	<path d="M104,77.8v7c0,0.4-0.3,0.7-0.8,0.7s-0.8-0.3-0.8-0.7v-7c0-0.4,0.3-0.7,0.8-0.7S104,77.5,104,77.8z"/>
	<path d="M110.7,80.5v4.4c0,0.4-0.2,0.7-0.6,0.7c-0.3,0-0.6-0.2-0.7-0.6l0-0.2c-0.4,0.5-0.9,0.8-1.8,0.8c-1.5,0-2.4-1-2.4-2.8
		c0-1.8,1.1-2.9,2.7-2.9c0.7,0,1.2,0.2,1.6,0.4c0.1-0.3,0.3-0.4,0.6-0.4C110.5,79.8,110.7,80.1,110.7,80.5z M109.2,83v-1.6
		c-0.3-0.2-0.6-0.4-1.2-0.4c-0.9,0-1.4,0.6-1.4,1.7c0,1.1,0.5,1.6,1.3,1.6C108.6,84.3,109.2,83.8,109.2,83z"/>
	<path d="M115.4,80.5c0,0.5-0.3,0.7-0.7,0.7h-0.1c-0.5,0-1.1,0.5-1.1,1.6v2c0,0.4-0.3,0.7-0.8,0.7s-0.8-0.3-0.8-0.7v-4.5
		c0-0.3,0.3-0.6,0.7-0.6c0.4,0,0.6,0.3,0.6,0.6l0,0.2c0.3-0.5,0.7-0.8,1.2-0.8h0.1C115.2,79.8,115.4,80.2,115.4,80.5z"/>
	<path d="M117.7,80.5v4.4c0,0.4-0.3,0.7-0.8,0.7s-0.8-0.3-0.8-0.7v-4.4c0-0.4,0.3-0.7,0.8-0.7S117.7,80.1,117.7,80.5z"/>
	<path d="M124.8,81.9v2.9c0,0.4-0.3,0.7-0.8,0.7s-0.8-0.3-0.8-0.7v-2.6c0-0.8-0.3-1.1-1.1-1.1s-1.3,0.6-1.3,1.3v2.5
		c0,0.4-0.3,0.7-0.8,0.7s-0.8-0.3-0.8-0.7v-4.4c0-0.3,0.3-0.6,0.7-0.6c0.4,0,0.6,0.3,0.7,0.6l0,0.3c0.4-0.6,1-0.9,2-0.9
		C124.1,79.8,124.8,80.6,124.8,81.9z"/>
	<path d="M132.1,84.8c0,0.3-0.2,0.6-0.6,0.7c-0.2,0-0.4,0-0.6,0c-1.2,0-1.7-0.4-1.7-1.7v-2.7h-0.4c-0.3,0-0.6-0.3-0.6-0.6
		c0-0.4,0.3-0.6,0.6-0.6h0.4v-1c0-0.4,0.3-0.7,0.8-0.7c0.5,0,0.8,0.3,0.8,0.7v1h0.9c0.3,0,0.6,0.2,0.6,0.6c0,0.4-0.3,0.6-0.6,0.6
		h-0.9v2.5c0,0.5,0.2,0.6,0.6,0.6c0.1,0,0.2,0,0.3,0C131.9,84.2,132.1,84.5,132.1,84.8z"/>
	<path d="M137.9,84.6c0,0.3-0.1,0.5-0.4,0.6c-0.4,0.2-0.9,0.3-1.8,0.3c-1.9,0-2.8-1.1-2.8-2.8c0-1.7,0.9-2.9,2.9-2.9
		c1.6,0,2.3,0.8,2.3,1.7c0,1.4-1.1,1.8-3.6,1.9c0.2,0.6,0.6,0.9,1.4,0.9c0.5,0,1-0.1,1.3-0.3C137.5,83.9,137.9,84.1,137.9,84.6z
		 M134.3,82.5c1.8-0.1,2.3-0.4,2.3-1c0-0.3-0.2-0.6-0.9-0.6C134.8,80.9,134.3,81.4,134.3,82.5z"/>
	<path d="M142.6,80.5c0,0.5-0.3,0.7-0.7,0.7h-0.1c-0.5,0-1.1,0.5-1.1,1.6v2c0,0.4-0.3,0.7-0.8,0.7s-0.8-0.3-0.8-0.7v-4.5
		c0-0.3,0.3-0.6,0.7-0.6c0.4,0,0.6,0.3,0.6,0.6l0,0.2c0.3-0.5,0.7-0.8,1.2-0.8h0.1C142.4,79.8,142.6,80.2,142.6,80.5z"/>
	<path d="M142.8,82.7c0-1.8,1-2.9,2.8-2.9c1.1,0,1.9,0.4,2.1,1.1c0.1,0.1,0.1,0.3,0.1,0.5c0,0.4-0.3,0.6-0.7,0.6
		c-0.3,0-0.5-0.1-0.6-0.3c-0.2-0.4-0.5-0.7-1-0.7c-0.8,0-1.2,0.5-1.2,1.6c0,1.1,0.5,1.6,1.5,1.6c0.9,0,1.1-0.3,1.5-0.3
		c0.4,0,0.6,0.3,0.6,0.6c0,0.4-0.2,0.5-0.4,0.6c-0.4,0.2-1,0.4-1.8,0.4C143.9,85.5,142.8,84.5,142.8,82.7z"/>
	<path d="M148.8,78.1c0-0.6,0.4-0.9,0.9-0.9c0.6,0,0.9,0.4,0.9,0.9c0,0.6-0.4,0.9-0.9,0.9C149.2,79.1,148.8,78.7,148.8,78.1z
		 M150.4,80.5v4.4c0,0.4-0.3,0.7-0.8,0.7s-0.8-0.3-0.8-0.7v-4.4c0-0.4,0.3-0.7,0.8-0.7S150.4,80.1,150.4,80.5z"/>
	<path d="M157.5,82v2.9c0,0.4-0.3,0.7-0.8,0.7s-0.8-0.3-0.8-0.7v-2.6c0-0.8-0.4-1.1-1-1.1c-0.8,0-1.3,0.5-1.3,1.3v2.5
		c0,0.4-0.3,0.7-0.8,0.7s-0.8-0.3-0.8-0.7v-7c0-0.4,0.3-0.7,0.8-0.7s0.8,0.3,0.8,0.7v2.7c0.4-0.4,1-0.7,1.8-0.7
		C156.8,79.8,157.5,80.6,157.5,82z"/>
	<path d="M158.9,78.1c0-0.6,0.4-0.9,0.9-0.9c0.6,0,0.9,0.4,0.9,0.9c0,0.6-0.4,0.9-0.9,0.9C159.3,79.1,158.9,78.7,158.9,78.1z
		 M160.5,80.5v4.4c0,0.4-0.3,0.7-0.8,0.7s-0.8-0.3-0.8-0.7v-4.4c0-0.4,0.3-0.7,0.8-0.7S160.5,80.1,160.5,80.5z"/>
</g>
</svg>
